<?xml version="1.0" encoding="UTF-8"?>
<!DOCTYPE svg PUBLIC "-//W3C//DTD SVG 1.1//EN" "http://www.w3.org/Graphics/SVG/1.1/DTD/svg11.dtd">
<svg xmlns="http://www.w3.org/2000/svg" version="1.1" width="1158px" height="782px" style="shape-rendering:geometricPrecision; text-rendering:geometricPrecision; image-rendering:optimizeQuality; fill-rule:evenodd; clip-rule:evenodd" xmlns:xlink="http://www.w3.org/1999/xlink">
<g><path style="opacity:1" fill="#0c242b" d="M -0.5,-0.5 C 385.5,-0.5 771.5,-0.5 1157.5,-0.5C 1157.5,260.167 1157.5,520.833 1157.5,781.5C 771.5,781.5 385.5,781.5 -0.5,781.5C -0.5,520.833 -0.5,260.167 -0.5,-0.5 Z"/></g>
<g><path style="opacity:1" fill="#9bdd9b" d="M 445.5,122.5 C 553.5,122.5 661.5,122.5 769.5,122.5C 769.5,230.5 769.5,338.5 769.5,446.5C 661.5,446.5 553.5,446.5 445.5,446.5C 445.5,338.5 445.5,230.5 445.5,122.5 Z"/></g>
<g><path style="opacity:1" fill="#4a745b" d="M 504.5,180.5 C 503.501,249.998 503.167,319.665 503.5,389.5C 526.5,389.5 549.5,389.5 572.5,389.5C 572.5,342.5 572.5,295.5 572.5,248.5C 573.499,295.664 573.832,342.997 573.5,390.5C 549.833,390.5 526.167,390.5 502.5,390.5C 502.333,319.833 502.5,249.166 503,178.5C 503.717,179.044 504.217,179.711 504.5,180.5 Z"/></g>
<g><path style="opacity:1" fill="#4a745b" d="M 642.5,248.5 C 642.5,295.5 642.5,342.5 642.5,389.5C 665.5,389.5 688.5,389.5 711.5,389.5C 711.833,319.665 711.499,249.998 710.5,180.5C 710.783,179.711 711.283,179.044 712,178.5C 712.5,249.166 712.667,319.833 712.5,390.5C 688.833,390.5 665.167,390.5 641.5,390.5C 641.168,342.997 641.501,295.664 642.5,248.5 Z"/></g>
<g><path style="opacity:1" fill="#0c242b" d="M 504.5,180.5 C 527.5,202.833 550.167,225.5 572.5,248.5C 572.5,295.5 572.5,342.5 572.5,389.5C 549.5,389.5 526.5,389.5 503.5,389.5C 503.167,319.665 503.501,249.998 504.5,180.5 Z"/></g>
<g><path style="opacity:1" fill="#0c242b" d="M 710.5,180.5 C 711.499,249.998 711.833,319.665 711.5,389.5C 688.5,389.5 665.5,389.5 642.5,389.5C 642.5,342.5 642.5,295.5 642.5,248.5C 664.833,225.5 687.5,202.833 710.5,180.5 Z"/></g>
<g><path style="opacity:1" fill="#fbfcfc" d="M 236.5,506.5 C 243.841,506.334 251.174,506.5 258.5,507C 267.743,508.215 276.743,510.381 285.5,513.5C 286.499,525.148 286.832,536.814 286.5,548.5C 279.8,548.83 273.134,548.497 266.5,547.5C 257.494,529.111 243.494,523.611 224.5,531C 217.822,537.189 213.322,544.689 211,553.5C 208.785,569.161 211.452,583.827 219,597.5C 225.304,605.323 233.47,608.99 243.5,608.5C 257.703,607.545 271.036,603.545 283.5,596.5C 286.795,599.307 289.129,602.807 290.5,607C 289.899,608.605 288.899,609.938 287.5,611C 279.881,616.284 272.548,621.951 265.5,628C 260.716,630.113 255.716,631.446 250.5,632C 230.442,635.399 212.109,631.399 195.5,620C 176.072,601.961 169.906,580.128 177,554.5C 189.233,529.103 209.066,513.103 236.5,506.5 Z"/></g>
<g><path style="opacity:1" fill="#fcfcfc" d="M 635.5,625.5 C 635.5,613.833 635.5,602.167 635.5,590.5C 641.833,590.5 648.167,590.5 654.5,590.5C 659.564,601.066 667.231,609.232 677.5,615C 681.833,615.667 686.167,615.667 690.5,615C 696.542,611.252 698.042,606.085 695,599.5C 693.542,597.04 691.709,594.873 689.5,593C 676.833,585 664.167,577 651.5,569C 632.326,555.44 630.66,540.106 646.5,523C 654.67,515.583 664.003,510.25 674.5,507C 692.27,505.918 709.604,508.085 726.5,513.5C 727.499,525.482 727.832,537.482 727.5,549.5C 720.825,549.666 714.158,549.5 707.5,549C 703.714,540.546 698.381,533.213 691.5,527C 686.518,524.087 681.185,523.087 675.5,524C 669.075,530.547 668.908,537.38 675,544.5C 678.5,547.333 682,550.167 685.5,553C 700.984,560.154 714.818,569.654 727,581.5C 733.965,593.179 732.632,603.846 723,613.5C 705.075,631.912 683.575,637.745 658.5,631C 650.483,630.007 642.816,628.174 635.5,625.5 Z"/></g>
<g><path style="opacity:1" fill="#fdfdfd" d="M 1010.5,517.5 C 1010.5,528.833 1010.5,540.167 1010.5,551.5C 1019.83,551.5 1029.17,551.5 1038.5,551.5C 1038.5,555.5 1038.5,559.5 1038.5,563.5C 1029.17,563.5 1019.83,563.5 1010.5,563.5C 1010.17,577.01 1010.5,590.344 1011.5,603.5C 1012.03,607.523 1014.36,609.69 1018.5,610C 1024.47,611.11 1030.14,610.276 1035.5,607.5C 1037.52,610.379 1039.19,613.546 1040.5,617C 1027.5,632.108 1011.5,635.775 992.5,628C 983.915,622.999 979.915,615.499 980.5,605.5C 980.5,591.5 980.5,577.5 980.5,563.5C 974.833,563.5 969.167,563.5 963.5,563.5C 962.923,559.131 963.757,555.131 966,551.5C 977.197,540.637 988.03,529.471 998.5,518C 1002.49,517.501 1006.49,517.334 1010.5,517.5 Z"/></g>
<g><path style="opacity:1" fill="#3e5157" d="M 1010.5,517.5 C 1011.49,528.321 1011.83,539.321 1011.5,550.5C 1020.68,550.173 1029.68,550.507 1038.5,551.5C 1029.17,551.5 1019.83,551.5 1010.5,551.5C 1010.5,540.167 1010.5,528.833 1010.5,517.5 Z"/></g>
<g><path style="opacity:1" fill="#fcfdfd" d="M 773.5,544.5 C 775.144,544.286 776.644,544.62 778,545.5C 779.53,549.09 780.864,552.757 782,556.5C 782.368,557.91 783.201,558.91 784.5,559.5C 790.516,554.498 796.849,549.998 803.5,546C 827.946,543.439 842.446,554.272 847,578.5C 847.869,598.258 839.703,613.091 822.5,623C 814.219,627.65 805.385,630.483 796,631.5C 792.335,631.519 788.835,630.852 785.5,629.5C 785.17,636.532 785.503,643.532 786.5,650.5C 794.494,652.665 802.494,654.832 810.5,657C 808.5,660.667 806.5,664.333 804.5,668C 783.503,668.5 762.503,668.667 741.5,668.5C 741.335,664.818 741.501,661.152 742,657.5C 746.315,654.019 750.482,650.353 754.5,646.5C 755.833,623.167 755.833,599.833 754.5,576.5C 750.418,573.709 746.251,571.042 742,568.5C 741.333,564.833 741.333,561.167 742,557.5C 752.704,553.438 763.204,549.105 773.5,544.5 Z"/></g>
<g><path style="opacity:1" fill="#fbfbfc" d="M 335.5,545.5 C 349.206,543.82 362.206,545.987 374.5,552C 381.461,556.643 385.628,563.143 387,571.5C 387.333,585.167 387.667,598.833 388,612.5C 392.552,613.86 396.718,615.86 400.5,618.5C 398.833,621.833 397.167,625.167 395.5,628.5C 382.517,629.499 369.517,629.832 356.5,629.5C 356.666,625.154 356.499,620.821 356,616.5C 349.76,621.747 343.26,626.581 336.5,631C 312.42,633.252 301.253,622.418 303,598.5C 305.869,592.248 310.036,587.081 315.5,583C 329.163,582.5 342.829,582.333 356.5,582.5C 356.321,576.31 353.321,572.143 347.5,570C 335.518,569.123 323.851,570.623 312.5,574.5C 311.558,574.392 310.725,574.059 310,573.5C 307.767,570.341 306.934,567.008 307.5,563.5C 313.833,558.333 320.167,553.167 326.5,548C 329.628,547.159 332.628,546.325 335.5,545.5 Z"/></g>
<g><path style="opacity:1" fill="#fbfcfc" d="M 436.5,545.5 C 451.063,545.279 465.397,546.946 479.5,550.5C 479.5,559.5 479.5,568.5 479.5,577.5C 475.116,577.826 470.783,577.492 466.5,576.5C 461.568,567.347 454.068,563.347 444,564.5C 442.707,568.582 443.874,571.749 447.5,574C 456.167,579.333 464.833,584.667 473.5,590C 483.53,597.099 485.03,605.599 478,615.5C 464.095,630.188 447.262,635.021 427.5,630C 421.383,629.177 415.383,627.843 409.5,626C 408.515,616.583 408.182,607.083 408.5,597.5C 412.514,597.334 416.514,597.501 420.5,598C 426.422,607.953 435.089,612.62 446.5,612C 449.265,609.034 448.932,606.367 445.5,604C 432.888,597.387 421.388,589.22 411,579.5C 407.546,573.655 407.88,567.988 412,562.5C 418.96,554.95 427.126,549.283 436.5,545.5 Z"/></g>
<g><path style="opacity:1" fill="#fbfcfc" d="M 526.5,545.5 C 540.188,543.873 553.188,546.04 565.5,552C 572.263,556.343 576.429,562.51 578,570.5C 578.167,584.512 578.667,598.512 579.5,612.5C 583.845,614.006 587.845,616.006 591.5,618.5C 589.833,621.833 588.167,625.167 586.5,628.5C 573.517,629.499 560.517,629.832 547.5,629.5C 547.824,625.445 547.491,621.445 546.5,617.5C 540.484,622.502 534.151,627.002 527.5,631C 503.472,633.304 492.305,622.471 494,598.5C 497.089,592.416 501.256,587.249 506.5,583C 520.163,582.5 533.829,582.333 547.5,582.5C 547.321,576.31 544.321,572.143 538.5,570C 526.063,568.942 514.063,570.775 502.5,575.5C 499.708,571.792 498.375,567.792 498.5,563.5C 505.201,558.812 511.534,553.645 517.5,548C 520.628,547.159 523.628,546.325 526.5,545.5 Z"/></g>
<g><path style="opacity:1" fill="#fcfcfc" d="M 905.5,545.5 C 922.39,543.073 936.557,548.073 948,560.5C 960.875,582.89 957.375,602.39 937.5,619C 922.822,630.542 906.488,633.875 888.5,629C 869.233,619.974 860.733,604.808 863,583.5C 870.724,563.608 884.891,550.941 905.5,545.5 Z"/></g>
<g><path style="opacity:1" fill="#637377" d="M 963.5,563.5 C 969.167,563.5 974.833,563.5 980.5,563.5C 980.5,577.5 980.5,591.5 980.5,605.5C 979.504,592.01 979.171,578.344 979.5,564.5C 973.974,564.821 968.64,564.488 963.5,563.5 Z"/></g>
<g><path style="opacity:1" fill="#3f5257" d="M 1038.5,563.5 C 1029.68,564.493 1020.68,564.827 1011.5,564.5C 1011.5,577.5 1011.5,590.5 1011.5,603.5C 1010.5,590.344 1010.17,577.01 1010.5,563.5C 1019.83,563.5 1029.17,563.5 1038.5,563.5 Z"/></g>
<g><path style="opacity:1" fill="#0f262d" d="M 903.5,565.5 C 913.443,566.265 919.609,571.598 922,581.5C 922.667,587.833 922.667,594.167 922,600.5C 919.633,610.792 913.8,613.292 904.5,608C 899.67,603.173 896.837,597.34 896,590.5C 895.039,583.647 895.706,576.98 898,570.5C 899.73,568.598 901.563,566.931 903.5,565.5 Z"/></g>
<g><path style="opacity:1" fill="#0f272e" d="M 792.5,570.5 C 797.599,570.175 802.599,570.675 807.5,572C 810.106,573.938 811.939,576.438 813,579.5C 815.216,588.612 814.882,597.612 812,606.5C 800.927,613.571 792.261,611.238 786,599.5C 785.333,590.833 785.333,582.167 786,573.5C 788.294,572.578 790.461,571.578 792.5,570.5 Z"/></g>
<g><path style="opacity:1" fill="#b1b9bb" d="M 654.5,590.5 C 648.167,590.5 641.833,590.5 635.5,590.5C 635.5,602.167 635.5,613.833 635.5,625.5C 634.505,613.678 634.172,601.678 634.5,589.5C 641.354,589.176 648.021,589.509 654.5,590.5 Z"/></g>
<g><path style="opacity:1" fill="#10272e" d="M 332.5,595.5 C 340.5,595.5 348.5,595.5 356.5,595.5C 357.275,599.182 355.941,601.682 352.5,603C 345.988,605.961 339.488,606.127 333,603.5C 331.304,600.881 331.137,598.214 332.5,595.5 Z"/></g>
<g><path style="opacity:1" fill="#0e262d" d="M 523.5,595.5 C 531.5,595.5 539.5,595.5 547.5,595.5C 547.799,597.604 547.466,599.604 546.5,601.5C 539.36,605.725 532.027,606.392 524.5,603.5C 523.607,600.916 523.274,598.249 523.5,595.5 Z"/></g>
</svg>
